<svg xmlns="http://www.w3.org/2000/svg" width="511.906" height="466" viewBox="0 0 511.906 466">
  <defs>
    <style>
      .cls-1 {
        fill: #fafafa;
        fill-rule: evenodd;
      }
    </style>
  </defs>
  <path id="Color_Fill_1" data-name="Color Fill 1" class="cls-1" d="M264,99c4.482-26.278,16.023-44.263,34-57l2-3h2l1-2,6-2,1-2h2V32h3V31l4-1V29h3c11.189-4.46,30.951-8.215,45-4h5l21,7,1,2h2v1h2l2,2h2l1,2h2l2,3h2l9,10,6,5v2l3,2v2l2,1v2l2,2v2h1v2h1v2h1c0.953,1.045-.131.151,1,1v1h11v1h6v1h4v1h3v1h3v1h3v1h2v1l6,2,1,2,4,1,2,3h2l2,3h2l5,6,3,2v2l3,2v2l3,2,1,4,2,1,3,9h1v2h1v3h1v4a62.274,62.274,0,0,1,0,38v4h-1v2h-1v3h-1l-2,6h-1v2h-1l-1,4-2,1v2l-3,2v2l-5,4c-8.9,12.193-24.017,18.915-40,24h-7v1H301c-15.1,0-37.264,2.163-49-2v-1l-6-1v-1h-2v-1l-5-1q-0.5-1-1-2l-4-1q-0.5-1-1-2h-2l-3-4h-2q-0.5-1-1-2l-4-3v-2l-4-3v-2l-2-1v-2l-2-1v-2h-1q-1-3-2-6h-1q-0.5-3-1-6h-1v-4c-3.185-9.936-2.361-24.028,1-33q0.5-3,1-6h1q0.5-2,1-4h1q0.5-2,1-4l2-1v-2l2-1v-2l4-3C230.47,108.847,244.733,102.373,264,99Zm80-57v1h-7v1h-4v1h-3v1h-3v1h-3v1l-4,1v1l-4,1-1,2h-2l-1,2h-2l-1,2h-2l-7,8-4,3v2l-3,2q-0.5,2-1,4l-2,1v2h-1q-0.5,2-1,4h-1v3h-1v2h-1q-0.5,4-1,8h-1q-0.5,8-1,16l-2,1c-1.82,2.673,1.058,1.779-3,3-3.91,3.482-14.463,1.025-20,3v1l-6,1v1h-2q-0.5,1-1,2l-4,1q-0.5,1-1,2h-2l-2,3-6,5v2l-3,2q-1,3-2,6h-1v3h-1v3h-1v3h-1v9h-1v1h1v9h1q0.5,3.5,1,7h1q1,3,2,6h1v2l3,2v2l6,5,3,4,4,1q0.5,1,1,2h2v1h2v1c10.227,4.5,28.538,3,43,3h85c26.24,0,63.654,3.481,82-5v-1h2l1-2,4-1,2-3h2l2-3,7-6v-2l3-2v-2l2-1,2-6h1v-3h1v-2h1v-4c4.561-13.927,1.072-33.406-5-43l-2-1v-2l-2-1v-2l-5-4c-6.805-9.105-17.849-14.312-30-18l-23-1-3-4h-1l-3-9h-1V79h-1V77l-2-1V74l-2-1q-0.5-2-1-4l-7-6-5-6C383.856,46.852,368.59,41.923,344,42ZM99,189l-3-15H95v-4H94v-4H93v-4H92v-3H91l-1-8c-2.749-8.069-5.178-18.077-8-26v-4c-3.084-9.012-6.768-18.029-5-29,1.08-.592,1.583-1.749,2-2h2V89h4V88a25.945,25.945,0,0,0,4,1c1.916,2.293,3,1.275,4,5h1l1,7h1v4c1.517,4.456,3.461,10.469,5,15v4c4.095,11.47,7.074,25.408,11,37q1,6,2,12h1q0.5,3.5,1,7h1v4c2.4,7.044,3.446,9.216,2,18-1.852.987-4.132,3.316-6,4l-23,2v1l-15,1c-13.669,3.91-31.283,3.07-45,7H23c-6.914,1.986-17.132,4.286-21-2H1v-3c-1.9-4.922-.288-6.3,3-9v-1l5-1v-1h8v-1h7v-1h8v-1h7v-1h8v-1h7v-1h8v-1h7v-1Zm66,37c-0.733-4.184-2.728-9.264-4-13q-0.5-3.5-1-7h-1v-4h-1v-4h-1v-4h-1v-4h-1v-3h-1q-0.5-4-1-8c-1.521-4.456-3.458-10.469-5-15v-4h-1q-1-5.5-2-11h-1v-4h-1v-3c-2-5.347-1.978-5.875-1-12l3-2v-1c3.093-1.923,7.865-.607,11,0,0.982,1.928,3.221,4.088,4,6q2,9.5,4,19c3.969,11.58,6.9,25.529,11,37q1,6,2,12h1v3h1v4h1v4h1v4h1q0.5,3.5,1,7h1v4c0.573,1.692,3.044,5.826,2,9h-1q-0.5,2-1,4l-3,1v1h-2v1h-7v1h-7v1h-8v1h-7v1h-8v1h-7v1h-8v1h-7v1h-8v1h-7v1H97c-8.128,2.342-18.924,3.54-28,2-0.945-1.8-1.385-1.574-2-4H66v-8c1.3-1.048,1.489-2.043,3-3v-1h3v-1h4v-1h8v-1h7v-1h8v-1h7v-1h8v-1h7v-1h8v-1h7v-1h8A88.6,88.6,0,0,1,165,226Zm164,79,3,14h1v4h1v4h1v4h1v3h1q0.5,4,1,8c2.749,8.069,5.179,18.077,8,26v4c3.189,9.322,6.866,18.467,5,30-1.062.583-1.605,1.764-2,2h-2v1h-8l-5-6-3-15c-4.116-11.464-7.051-25.414-11-37q-1-6-2-12h-1v-3h-1v-4h-1v-4h-1v-4h-1q-0.5-3.5-1-7h-1v-4c-2.316-6.815-3.4-8.562-2-17,1.99-1.09,3.718-3.221,6-4l36-4v-1h8v-1h7v-1h8v-1h7v-1h8v-1h8c7.585-2.191,16.281-2.883,26-3,1.938,3.352,8.14,7.589,4,14l-2,1-1,2c-3.814,2.5-8.95.569-14,2v1h-8v1h-7v1h-8v1h-7v1h-8v1h-7v1h-8v1h-7A87.365,87.365,0,0,1,329,305Zm-81,55c20.91,0.293,41.709,16.868,50,30v2h1v2h1l2,6h1q0.5,3,1,6c3.419,9.21,4.374,22.718,1,33v4h-1l-1,5h-1v2h-1l-1,5-2,1-1,4-3,2v2l-5,4-6,7h-2l-2,3h-2l-1,2h-2v1l-6,2v1l-9,2v1h-5c-10.176,3.043-25.872,2-39,2H72v-1H64v-1H59v-1H55v-1H52v-1H49v-1l-4-1v-1H42v-1H40l-1-2-4-1-1-2H32l-2-3H28l-3-4-8-7v-2l-4-3-1-4-2-1v-2l-2-2v-2H7v-2H6v-2H5L3,431c-4.942-14.818-3.226-30.941,2-44v-3c11.264-25.628,36.725-47.282,73-48,0.757-3.572,2.328-6.047,4-9h1l1-4,3-2v-2l3-2v-2l5-4,5-6h2l2-3,3-1,1-2h2l1-2,23-10h5v-1h4v-1h8v-1c5.974-1.669,22.1.757,26,2h4v1h4C219.092,299.11,241.044,320.618,248,360Zm-16,16c-0.675-2.885-1.783-2.494-2-3v-7h-1v-9h-1v-4h-1v-4h-1v-2h-1v-3h-1q-0.5-2-1-4h-1q-0.5-2-1-4l-2-1v-2l-2-1v-2l-6-5v-2l-2-2h-2l-3-4h-2l-2-3-4-1-1-2h-2v-1h-2v-1h-3v-1h-2v-1l-6-1v-1h-4c-6.5-2.11-20.29-3.314-28-1h-5l-19,7-1,2-4,1-1,2h-2l-4,5h-2v1l-3,2v2l-5,4v2l-2,1v2l-2,1v2H97l-2,6H94v3H93c-1.931,3.9-1.285,5.671-6,7-3.66,3.094-12.681-.554-18,1v1H64v1H60v1l-6,1v1l-6,2v1H46l-1,2H43l-2,3H39l-3,4-5,4c-8.9,12.576-16.974,34.051-9,54v3a64,64,0,0,0,38,35c12.57,4.417,33.25,2,49,2H211c20.07,0,42.645,1.829,55-6l1-2h2l2-3h2l1-2,4-3v-2l3-2,1-4,2-1c1.393-2.29.948-5.291,2-8h1v-3h1v-9c0.056-.252,1.267-0.333,1-2h-1v-9l-7-16-5-4v-2l-3-1-4-5-4-1v-1l-6-2v-1h-3v-1h-3v-1h-8v-1H235C234.575,377.822,234.833,376.672,232,376Zm162-15c0.938,5.783,3.262,12.131,5,17l3,15h1q0.5,4,1,8c2,5.834,4.008,13.165,6,19v4c3.157,8.781,6.816,19.613,8,30-2.757,2.485-1.448,4.777-6,6v1h-7v-1h-2l-3-3v-2h-1v-4h-1v-4h-1v-4h-1l-3-15c-4.063-11.48-7.094-25.4-11-37q-1-6-2-12h-1v-3h-1v-4h-1v-4h-1v-4c-0.807-2.283-4.341-8.8-3-13,1.854-5.8,6.279-6.322,12-8h8v-1h7c11.521-3.307,26.56-2.735,38-6h8v-1h7v-1h8c8.334-2.379,19.608-3.648,29-2,0.945,1.8,1.385,1.574,2,4,2.117,2.215.534,6.491,0,9l-3,2v1h-2v1l-36,4v1h-7v1h-8v1h-7v1h-8A126.648,126.648,0,0,1,394,361Z" transform="translate(-0.063 -23.156)"/>
</svg>
