<svg xmlns="http://www.w3.org/2000/svg" width="383.328" height="255.99" viewBox="0 0 355.031 237.094">
  <defs>
    <style>
      .cls-1 {
        fill: #fafafa;
        fill-rule: evenodd;
      }
    </style>
  </defs>
  <path id="Color_Fill_1" data-name="Color Fill 1" class="cls-1" d="M374,223c28.226-.4,47.638,16.773,56,36v3h1v3h1c0.9,2.73,2.152,22.207,1,26h-1v4h-1q-0.5,3.5-1,7h-1v2h-1v3h-1v2h-1v2l-2,1v2l-2,1v2c-1.833,2.591-3.766,1.655-5,6h-2c-1.989,3.429-3.084,2.936-6,5l-2,3-6,2v1a46.347,46.347,0,0,1-30,5c-1.335-2.986-2.008-5.05-2-10l3-2v-1h2v-1h9v-1h4v-1h3v-1l6-2v-1h2l1-2h2l3-4,6-5v-2c3.981-5.915,7.93-12.052,8-22V271h-1v-4h-1v-2h-1v-3h-1v-2h-1v-2l-2-1v-2l-7-6-3-4h-2l-1-2-14-5c-6.787-2.01-16.851,1.187-23-1-0.109-9.192-3.292-18.265-6-25v-3h-1v-2h-1v-3h-1l-2-6h-1l-1-4-2-1v-2h-1l-1-3-2-1v-2l-4-3v-2l-6-5-1-2h-2l-3-4-3-1-1-2-4-1-1-2-4-1v-1l-4-1v-1h-3v-1h-2v-1h-3v-1c-11.228-3.977-36.865-4.708-49-1h-5v1h-4v1h-4v1h-3v1h-3c-22.473,9.746-39.078,23.635-49,46l-18-5h-9c-1.5-.418-5.979-1.849-9-1v1h-8c-13.368,4.034-23.693,8.863-31,19l-4,3v2l-2,1v2l-2,1v2h-1l-1,4H98v3H97v2H96v4H95v4H94v22l5,18h1q0.5,2,1,4h1v2l2,1v2l2,1v2l5,4,1,3,3,1,4,5h2l1,2,4,1,1,2h2v1h2v1h3v1h2v1h3v1h3v1h4v1h5l3,4h1v7l-3,2v1h-2v1c-3.059,1.089-7.4-1.459-9-2h-4v-1l-9-2v-1l-6-2v-1h-2v-1l-4-1-1-2h-2l-1-2h-2l-2-3h-2l-3-4-7-6v-2l-3-2v-2l-2-1-1-4-2-1v-2H87v-2H86v-3H85v-2H84v-3H83v-3H82v-3H81v-5H80c-1.032-3.387-2.34-26.556-1-31h1v-4h1v-4h1v-3h1v-3h1l2-6h1v-2h1l1-4h1l1-3,2-1v-2l4-3v-2l6-5q0.5-1,1-2h2l2-3h2q0.5-1,1-2h2q0.5-1,1-2l6-2v-1l4-1v-1h3v-1h3v-1h4v-1h5v-1h8c1.71-.476,6.77-1.911,10-1v1h10c3.1,0.9,5.552,1.855,10,2,1.764-6.907,10.375-14.455,15-19l2-3h2l3-4h2l2-3h2q0.5-1,1-2h2q0.5-1,1-2h2l2-2h2v-1h2v-1h2c17.482-9.288,53.5-17.568,79-9h4c20.725,7.339,37.274,17.68,49,34l4,3v2l2,1,1,3h1l1,4,2,1,1,4h1l1,4h1v3h1l1,4h1Q371.5,213.5,374,223ZM229,291h58c11.14,0,24.475-.716,34,1,0.945,1.8,1.385,1.574,2,4h1v5h-1v2c-2.7,4.048-11.293,3-18,3H228c-2.655-4.448-4.037-3-4-11A21.9,21.9,0,0,0,229,291Zm-34,34h55c9.932,0,22.015-.819,29,2,2.008,4.016,4.13,10.35-2,12-2.281,2.058-16.347,1-21,1H207c-9.019,0-16.486,2.087-17-7h-1c-0.021-.6.888-1.85,1-4A21.9,21.9,0,0,0,195,325Zm161,48c-14.746,2.625-34.525,1-51,1H210c-2.366-4.073-3.073-3.755-3-11,1.957-1.115,3.728-3.254,6-4H351v1l5,1a17.815,17.815,0,0,1,2,9C356.281,371.127,356.645,370.633,356,373Z" transform="translate(-78.438 -137.406)"/>
</svg>
