<svg xmlns="http://www.w3.org/2000/svg" width="255.313" height="256" viewBox="0 0 510.625 512">
  <defs>
    <style>
      .cls-1 {
        fill: #fafafa;
        fill-rule: evenodd;
      }
    </style>
  </defs>
  <path id="Color_Fill_1" data-name="Color Fill 1" class="cls-1" d="M233,0c60.459-.879,105.5,19.787,132,53l23,33c71.552-.89,113.605,42.608,124,105,6.865,41.206-33.864,120.183-62,104q-1-4.5-2-9c4.224-7.788,10.806-9.765,16-16,14.46-17.357,22.572-34.859,27-63,8.807-55.969-56.08-113.151-116-99-29.044,6.859-44.144,23.356-62,41l-9-1q-2.5-2.5-5-5v-8c16.248-24.912,37.771-31.552,65-46C303.471-24.187,112.744,13.894,107,152c20.217,4.741,50.927,19.826,53,42l-6,8-10-1c-15.816-12.349-26.614-25.294-51-30C33.18,159.457,3.668,233.628,34,274c29.493,39.256,157.579,25.006,227,25,18.074,0,41.222-1.919,56,2,1.9,4.812,3.108,6.876,2,13l-6,5-73,1c-67.067,0-168.784,12.383-208-18-35.064-27.166-44.293-100.584-5-131,15.841-12.262,34.878-17.629,59-22,0.869-67.574,48.323-116.129,97-137C198.04,5.551,216.228,6.632,233,0ZM371,256l7,1c23.141,21.837,57.634,82.01,23,116-6.56,6.438-18.618,14.048-34,11C300.9,370.9,340.923,277.808,371,256Zm2,29c-9.1,13.838-38.626,62.36-8,76C414.1,379.068,387.7,298.2,373,285ZM210,331l7,1c25.706,11.7,45.8,95.9-9,84C162.544,406.128,188.524,348.436,210,331Zm2,31c-2.432,5.684-12.183,17.1-9,26,4.079,11.408,17.239,5.83,21-2C223.243,377.094,218.42,365.524,212,362Zm-87,33,8,1c19.119,14.144,40.58,62.258,11,79-4.782,2.706-11.869,6.863-21,5C77.676,470.751,102.424,411.247,125,395Zm2,31c-2.862,6.9-10.861,16.331-9,24,1.269,5.09,2.577,6.171,7,8l5,1c4.678-3.323,6.446-4.368,9-10C136.437,440.958,133.478,430.244,127,426Zm158,1,8,1c19.119,14.144,40.58,62.258,11,79-4.782,2.706-11.869,6.863-21,5C237.676,502.751,262.424,443.247,285,427Zm2,31c-2.862,6.9-10.861,16.331-9,24,1.269,5.09,2.577,6.171,7,8l5,1c4.678-3.323,6.446-4.368,9-10C296.437,472.958,293.478,462.244,287,458Z" transform="translate(-1.375)"/>
</svg>
