<svg xmlns="http://www.w3.org/2000/svg" width="255.989" height="256.051" viewBox="0 0 511.875 512">
  <defs>
    <style>
      .cls-1 {
        fill: #fafafa;
        fill-rule: evenodd;
      }
    </style>
  </defs>
  <path id="Color_Fill_1" data-name="Color Fill 1" class="cls-1" d="M180,0c9.725-.11,19.843-0.173,27,2h5c24.091,7.721,41.8,17.369,55,36l3,2v2l2,1,1,3h1q0.5,2,1,4l2,1q0.5,2,1,4h1q0.5,2,1,4h1v3h1v2h1q0.5,3,1,6h1v4h1v4h1v6h1v9h1v11h-1v10h-1v5h-1v4h-1v4h-1v3h-1v3h-1v3h-1l-2,6h-1v2h-1l-2,6-2,1v2l-2,1v2l-3,2v2l-6,5v2l-2,1-2,3h-2l-5,6h-2q-0.5,1-1,2l-3,1v1h-2q-0.5,1-1,2h-2q-0.5,1-1,2l-4,1v1l-4,1v1l-5,1v1l-9,2v1l-8,1v1h-6c-10.078,2.9-31.563,1-44,1H51c-17.527,0-44.3,3.755-48-10-2.214-1.88-.943-2.092-2-5-3.186-8.764,2.338-16.845,7-21l3-1v-1h2v-1c43.459-.8,90.9-1,136-1,18.056,0,49.335,2.53,62-3v-1l6-2v-1l4-1q0.5-1,1-2h2q0.5-1,1-2h2l6-7,3-2v-2l3-2q0.5-2,1-4l2-1v-2h1v-2h1v-3h1v-2h1v-4h1v-4h1q0.5-7.5,1-15h-1V87h-1q-1-5-2-10h-1q-1-3-2-6h-1q-0.5-2-1-4l-2-1V64l-4-3V59l-2-1-3-4h-2l-2-3h-2l-1-2h-2l-1-2h-2V46h-2V45h-3V44h-2V43l-7-1V41h-5c-9.665-2.865-20.96.183-28,3h-3v1l-4,1v1h-2l-1,2h-2l-1,2h-2l-3,4h-2l-3,4h-1v2l-4,3v2l-2,1-7,16c-2.5,7.114-.446,20.216-4,26l-2,1v2h-1l-2,3h-2v1c-2,1.146-2.428.192-4,2l-9,1v-1l-7-1v-1l-3-1-3-4H95v-2l-2-1v-3H92c-2.382-6.581.147-21.321,2-27V74h1V70h1l1-6h1V62h1V59h1q1-3,2-6h1q0.5-2,1-4l2-1V46l2-1V43l2-1V40l3-2V36l9-8,5-6h2l2-3h2l2-3,4-1,1-2,4-1V11h2V10l6-2V7l6-1V5h2V4h4V3l9-1V1h7V0ZM401,79c10.784-.127,23.027-0.44,31,2h5c21.166,6.79,39.3,16.706,51,33l4,3v2l3,2v2l2,1,1,4,2,1,1,4h1l1,4h1v3h1v2h1q0.5,3,1,6c6.037,15.485,6.558,38.532,1,55v4h-1v3h-1q-0.5,2.5-1,5h-1v2h-1q-0.5,2.5-1,5l-2,1-2,6h-1l-1,3-2,1v2l-2,1-1,3-5,4v2l-2,1-3,4h-2l-4,5h-2l-2,3h-2l-1,2-3,1v1l-6,2-1,2-5,1v1l-4,1v1l-6,1v1c-18.146,6.417-50.842,4-75,4H128c-8.393,0-31.909,1.781-36-2-6.615-1.613-6.873-6.5-11-10-0.363-4.859-1.517-7.616,0-12v-4h1c1.613-6.615,6.5-6.873,10-11,30.784-1.393,65.579-1,98-1H397c12.992,0,26.6.714,36-3v-1h3v-1h2v-1l6-2,1-2h2l2-3h2l5-6,3-2v-2l3-2v-2l2-1,2-6h1v-2h1q1-5,2-10a44.928,44.928,0,0,0,0-26v-4h-1v-2h-1v-3h-1l-2-6h-1l-1-4-3-2v-2l-4-3-7-8h-2l-1-2-3-1v-1h-2v-1l-4-1v-1l-9-2v-1h-5v-1H403v1h-4v1h-4v1h-2v1h-3v1l-4,1v1h-2l-1,2h-2l-1,2h-2l-3,4h-2l-3,4h-1v2l-4,3v2l-2,1-1,4h-1l-1,4h-1v3h-1v2h-1v4h-1v4h-1v13c-2.928,9.705-9.918,19.753-25,17l-6-2c-2.585-4.379-7.264-6.586-9-12-1.583-4.937.845-25.556,2-29h1l3-13c9.683-22.093,25.424-38.794,45-51h2V89h2V88h3V87l4-1V85h3V84h3V83h3V82h4V81C393.2,79.934,398.792,80.906,401,79ZM14,315H321c16.1,0,32.328-.567,44,4v1l6,1v1l4,1v1l5,1,1,2,6,2,1,2h2l1,2h2l3,4h2l7,8,6,5v2l4,3v2l2,1,1,3h1l2,6,2,1v2h1v3h1l1,4h1v3h1v3h1v3h1v4h1v4h1v7h1c1.261,4.5-.081,21.839-1,25q-0.5,5.5-1,11h-1q-1,5-2,10h-1v2h-1v3h-1l-2,6h-1v2h-1l-1,4-2,1v2h-1l-1,3-2,1v2l-4,3v2l-5,4-6,7h-2l-2,3h-2l-2,3h-2l-1,2-4,1-1,2-4,1v1l-4,1v1h-3v1h-2v1h-3v1h-3v1h-3v1h-4v1h-5v1h-7v1c-6.433,1.8-22.8-.731-27-2h-5v-1l-8-1v-1h-3v-1l-5-1v-1h-2v-1h-3l-1-2h-2v-1h-2l-2-2h-2l-1-2h-2l-1-2h-2l-2-3h-2l-5-6h-2l-3-4h-1v-2l-5-4v-2l-3-2v-2l-2-1-1-3h-1q-0.5-2-1-4l-2-1v-2h-1v-2h-1v-3h-1q-0.5-2-1-4h-1q-0.5-3-1-6c-2.609-7-8.144-27.5-4-37h1q0.5-2,1-4l5-4,1-2c1.678-1.155,2.269-.016,4-2,4.355-.329,10.951-1.859,14,1,4.083,0.959,4.623,2.589,7,5l3,2v2h1v2h1v3h1v12h1v5h1v4h1q0.5,3,1,6h1v2h1l2,6,2,1v2l3,2v2l6,5,2,3h2l2,3,4,1,1,2h2v1l4,1v1l6,1c4.07,1.512,16.966,5.025,24,3v-1l10-1v-1h2v-1h3v-1l6-2v-1l4-1,2-3h2l5-6,5-4v-2l3-2,1-4,2-1v-2h1v-2h1v-3h1v-3h1v-3h1v-5h1c1.773-6.161-.759-20.267-2-24v-4h-1v-2h-1v-3h-1l-1-4h-1v-2l-2-1-1-4-4-3v-2l-2-1-3-4h-2l-3-4-4-1-1-2h-2v-1l-4-1v-1h-3v-1h-2v-1c-6.941-2.7-19.483-2-29-2H38c-9.877,0-23.078.966-29-3l-3-4-3-2c-1.245-1.864-4.365-11.77-3-16,0.716-2.219,2.384-4.213,3-7,2.416-1.344,3.336-3.87,5-5h2v-1C12,315.854,12.442,316.826,14,315Z"/>
</svg>
